/* XPM */
static char *f2d43f1b438c4d5ccd632dc3f885860e[] = {
/* columns rows colors chars-per-pixel */
"32 32 82 1 ",
"  c #7F317D",
". c #BF183F",
"X c #FF0001",
"o c #F60309",
"O c #FF0A0A",
"+ c #EA0815",
"@ c #E5091A",
"# c #FF1212",
"$ c #FF1B1B",
"% c #D70E28",
"& c #CF112F",
"* c #D2112D",
"= c #C71337",
"- c #CA1536",
"; c #C4163B",
": c #FF2424",
"> c #FF2C2C",
", c #AE1D4F",
"< c #BC1943",
"1 c #B11C4E",
"2 c #AD1E51",
"3 c #9F245F",
"4 c #9C3158",
"5 c #AA2E4F",
"6 c #B72347",
"7 c #A82157",
"8 c #A62258",
"9 c #8F286D",
"0 c #962766",
"q c #9C2663",
"w c #962769",
"e c #94286B",
"r c #872C75",
"t c #8D2B72",
"y c #812F7F",
"u c #FF4040",
"i c #FF4A4A",
"p c #FF5D5D",
"a c #5F3D9F",
"s c #6E328D",
"d c #773386",
"f c #7D3282",
"g c #74348A",
"h c #6B3792",
"j c #6B3994",
"k c #61379C",
"l c #613A9C",
"z c #593CA4",
"x c #553FA8",
"c c #3E49BC",
"v c #5342AD",
"b c #4743B5",
"n c #4C44B1",
"m c #464AB6",
"M c #4245BB",
"N c #4549BA",
"B c #1F4FDE",
"V c #1E55DD",
"C c #2F4DCE",
"Z c #354AC7",
"A c #394EC5",
"S c #324CCB",
"D c #2C4DD2",
"F c #2B51D3",
"G c #2352DB",
"H c #0E5BED",
"J c #1657E6",
"K c #1A55E3",
"L c #1658E5",
"P c #1859E6",
"I c #1457E9",
"U c #1259EA",
"Y c #0957F3",
"T c #055DF6",
"R c #0A5DF4",
"E c #0057FF",
"W c #015EFD",
"Q c #095EF8",
"! c #115EF2",
"~ c #0561F7",
"^ c #0061FE",
"/ c #0861FA",
/* pixels */
"^^^/^!PGm456;--@XXXXXXXXXOipOXO$",
"^^^^///RKAcbnjt,XXXXXXXXXO>OXX$X",
"^^^^^//WTUUUUV02oXXXXXXXXXXXXO$X",
"^^^^WWW^TTRT~Ur.oXXXXXXXXXXXXXXX",
"^^W^^WW^WWWT^Yn.+XXXXXXXXXXXXXXO",
"W^^^^^^^^^T^WTC.@XXXXXXXXXXXXXXO",
"^^W^^^WW^^^^^Tb@oXXXXXXXXXXXXXXO",
"^^^W^^^^^^^^^Tl<%+XXXXXXXXXXXXXO",
"^WWW^^^W^^^W^Yk%*oXXXXXXXXXXXXXX",
"^^EW^W^^^WW~WRz8;@XXXXXXXXXXXXXX",
"^WWW^^^^^^W^THde-XXXXXXXXXXXXXXX",
"^W^W^W^^^^TTWBt7=XXXXXXXXXXXXXOX",
"^^WW^^^^^W^UUCge=XXXXXXXXXXXXXXX",
"^^WW^^^^^WTHHGzj<XXXXXXXXXXXXXXX",
"^^^W^^^^^WTRICzs,XXXXXXXXXXXXXXX",
"^^^^^^^TTT^HHJnh,XXXXXXXXXXXXXXX",
"^^^W^^^^WWTTYZ91&XXXXXXXXXXXXXXX",
"^W^W^^^^WWT~~Pvw;oXXXXXXXXXXXXXX",
"W^WW^^^~TWWTUMfe1@XXXXXXXXXXXXXO",
"^^^^^^~^~ULJVnd01oXXXXXXXXXXXXXO",
"W^^^^^^~TTRLSh3=-XXXXXXXXXXXXXX#",
"^^^W^^^~Y^~~Kd<oXXXXXXXXXXXXXXX#",
"^W^W^^^/TTRUF w-XXXXXXXXXXXXXXXO",
"^^^W^^~ULPIGZzd1XXXXXXXXXXXXXXX#",
"^^^^^^^HVPJSl.<+oXXXXXXXXXXXXXX$",
"W^WW^^~^RRPSzsdq1oXXXXXXXXXXXXX:",
"^W^^^^^HPJISnxzq1oXXXXXXXXXXXXX:",
"W^W^^W^H!IUZjf8<.XXXXXXXXXXXXXX:",
"WWWW^^WTQR!GZANgtoXXXXXXXXXXXXX$",
"^^^W^^^^/WWIat1@@XXXXXXXXXXXXXO:",
"^W^W^^W/W/QGvjhq8@XXXXXXXXXXXXXu",
"^^W^/W~T!RQDywe;;oXXXXXXXXXXXXOi"
};
